<svg width="34" height="34" viewBox="0 0 34 34" fill="none" xmlns="http://www.w3.org/2000/svg">
<path id="Vector 9" d="M13.8342 7.10928C14.5572 7.86891 13.8342 9.15606 13.3824 9.70468L11.6227 11.3639C10.6717 12.2606 10.3932 13.6831 11.0811 14.7946C13.5127 18.7235 16.8615 21.244 19.2515 22.5434C20.3153 23.1218 21.593 22.7927 22.4306 21.9183C23.1192 21.1995 23.8642 20.4488 24.3564 20.023C25.0763 19.4 25.9902 19.586 26.5568 19.8476C26.7757 19.9487 26.9556 20.1125 27.1187 20.2901C28.3369 21.6171 30.6893 24.1443 32.0381 25.467C33.2468 26.6522 33.0964 27.5367 32.7632 27.98C32.6447 28.1376 32.4886 28.2623 32.352 28.4045C31.8561 28.9209 30.8285 29.9287 29.456 31.1009C27.4549 32.8101 25.8411 33 24.8082 33C23.7754 33 20.0313 32.4936 15.2544 29.0752C10.4775 25.6569 5.70057 20.5294 4.15131 17.6175C2.60204 14.7056 1.50464 12.4267 1.18187 9.70468C0.923661 7.52707 0.794758 7.10928 1.8274 5.40011C2.57355 4.16512 4.8743 2.33627 5.70057 1.47536C6.42022 0.72554 7.45326 1.00973 8.04908 1.33255C8.2094 1.41942 8.34642 1.53958 8.47483 1.66904C10.0879 3.29546 13.1399 6.37976 13.8342 7.10928Z" stroke="black" stroke-width="2"/>
</svg>
