<svg width="35" height="35" viewBox="0 0 35 35" fill="none" xmlns="http://www.w3.org/2000/svg">
<rect width="35" height="35" fill="#1E1E1E"/>
<rect x="-50" y="-4220" width="320" height="5215" fill="white"/>
<rect x="-50" y="-225" width="320" height="446" fill="#DF803E"/>
<circle cx="17.5" cy="17.5" r="17" stroke="white"/>
<path d="M7.29289 18.2071C6.90237 17.8166 6.90237 17.1834 7.29289 16.7929L13.6569 10.4289C14.0474 10.0384 14.6805 10.0384 15.0711 10.4289C15.4616 10.8195 15.4616 11.4526 15.0711 11.8431L9.41421 17.5L15.0711 23.1569C15.4616 23.5474 15.4616 24.1805 15.0711 24.5711C14.6805 24.9616 14.0474 24.9616 13.6569 24.5711L7.29289 18.2071ZM27 18.5H8V16.5H27V18.5Z" fill="white"/>
</svg>
