<svg width="26" height="26" viewBox="0 0 26 26" fill="none" xmlns="http://www.w3.org/2000/svg">
<path id="Vector 15" d="M16.205 17.6183V25H21.3727C24.1553 25 24.9503 22.8202 25 21.7303C24.9503 16.8422 24.8311 6.51108 24.7516 4.29163C24.6721 2.07218 22.9959 1.18703 22.1677 1.02188C17.0994 1.00537 6.3764 0.98225 4.03106 1.02188C1.68571 1.06152 1.03313 3.21823 1 4.29163V21.7303C1 23.9497 3.0207 24.8349 4.03106 25H11.5839V17.6183H8.70186V13.0605H11.5839V9.84028C11.9416 6.51109 14.648 5.64576 15.9565 5.62925H20.3789V10.2366H16.205V13.0605H20.3789L19.5839 17.6183H16.205Z" stroke="black" stroke-width="2"/>
</svg>
