<svg width="40" height="40" viewBox="0 0 40 40" fill="none" xmlns="http://www.w3.org/2000/svg">
<path d="M30.875 12.2273C30.875 14.6438 29.6248 18.2429 27.7223 22.3577C25.8422 26.4242 23.4104 30.8222 21.201 34.7834C20.7973 35.5072 19.5678 35.5195 19.1473 34.6664C18.1856 32.7154 17.068 30.6324 15.9415 28.5387L15.8109 28.2958C14.7241 26.2761 13.6332 24.2487 12.6527 22.2942C11.6322 20.26 10.7432 18.3282 10.1108 16.593C9.47299 14.8428 9.125 13.3682 9.125 12.2273C9.125 6.63101 13.9403 2 20 2C26.0597 2 30.875 6.63101 30.875 12.2273Z" stroke="black" stroke-width="2"/>
<circle cx="20" cy="13" r="4" stroke="black" stroke-width="2"/>
</svg>
